# xmcd CD database file
#
# Track frame offsets:
#	182
#	20787
#	45760
#	67025
#	86220
#	109472
#	142335
#	182007
#	209642
#	230700
#	251915
#
# Disc length: 3574 seconds
#
# Revision: 0
# Processed by: cddbd v1.5PL3 Copyright (c) Steve Scherf et al.
# Submitted via: CDex 1.51
#
DISCID=b00df40b
DTITLE=Ben Webster - Autumn Leaves
DYEAR=1972
DGENRE=Jazz
TTITLE0=Johnny Come Lately
TTITLE1=Prelude to a Kiss
TTITLE2=Autumn Leaves
TTITLE3=Autumn Leaves (take #2)
TTITLE4=Hal Blues
TTITLE5=Makin' Whopee
TTITLE6=Makin' Whopee (take #2)
TTITLE7=I Want a Little Girl
TTITLE8=You Better Go Now
TTITLE9=You Better Go Now (take #2)
TTITLE10=Ash's Cap
EXTD=YEAR: 1972
EXTT0=
EXTT1=
EXTT2=
EXTT3=
EXTT4=
EXTT5=
EXTT6=
EXTT7=
EXTT8=
EXTT9=
EXTT10=
PLAYORDER=
